<svg width="64" height="43" viewBox="0 0 64 43" fill="none" xmlns="http://www.w3.org/2000/svg">
<path d="M31.2575 41.6083L28.6326 41.5492C28.7378 36.8168 30.27 32.5169 32.7309 30.0434C34.5819 28.1797 37.5102 26.7982 40.5375 26.3284C41.9366 20.9675 45.5087 17.4424 50.6099 16.3596C50.6161 16.3254 50.6223 16.2912 50.6285 16.26C51.1021 13.6589 52.4671 11.5806 54.5813 10.2551C57.135 8.65277 60.5585 8.28874 63.9727 9.25015L63.2608 11.7921C60.5988 11.0361 57.8717 11.3005 55.968 12.4922C54.6741 13.3043 53.8012 14.4897 53.3741 16.0205C53.5474 16.0143 53.7239 16.008 53.9003 16.008C53.9436 16.008 53.987 16.008 54.0272 16.008C56.5685 16.008 59.8311 16.8232 61.5304 19.1256C63.1308 21.2818 62.62 24.7509 60.4501 26.4C59.4163 27.1809 58.1781 27.4858 56.8595 27.2898C54.7639 26.9756 53.0274 25.507 52.1019 24.2345C51.0371 22.7783 50.4675 21.0609 50.3994 19.1132C46.9047 20.0715 44.4779 22.4828 43.3016 26.1697C45.0505 26.2475 46.7282 26.6831 48.1428 27.5636C49.9289 28.6713 51.0804 30.7123 51.0711 32.7627C51.0618 34.6451 50.096 36.3096 48.4183 37.3302C46.9202 38.2418 45.2487 38.2045 43.7071 37.2275C41.3763 35.7496 39.7048 32.2555 39.9865 29.4429C39.9958 29.334 40.0081 29.222 40.0205 29.1131C37.8785 29.6047 35.8572 30.6221 34.585 31.904C32.5916 33.9077 31.3472 37.5324 31.2544 41.6021L31.2575 41.6083ZM42.7104 28.7988C42.6671 29.0944 42.6331 29.3993 42.6021 29.7073C42.4195 31.5306 43.6174 34.0539 45.1125 35.0029C46.0256 35.5785 46.6601 35.3233 47.0625 35.0775C48.2017 34.3837 48.4462 33.4316 48.4493 32.7565C48.4524 31.6053 47.7931 30.451 46.7654 29.8131C45.6325 29.1068 44.221 28.7988 42.7383 28.7988H42.7104ZM53.015 18.6869C53.0088 20.2488 53.4081 21.5649 54.2191 22.6757C54.9806 23.718 56.194 24.5238 57.2464 24.6794C57.8717 24.7758 58.401 24.6483 58.8715 24.2905C59.8713 23.5313 60.1561 21.6863 59.4256 20.7C58.3546 19.2501 55.8814 18.6838 53.9282 18.6465C53.6186 18.6496 53.3122 18.662 53.015 18.6838V18.6869Z" fill="#AA2677"/>
<path d="M28.3755 42.6754C28.1031 38.0177 24.367 32.5541 20.0458 30.4975C19.8044 30.3824 19.5474 30.2735 19.2812 30.1708C19.2038 32.5386 18.2876 34.4863 16.5604 35.765C15.1396 36.8136 13.5331 37.0656 12.1556 36.4526C10.7781 35.8397 9.82168 34.4707 9.65453 32.8808C9.48428 31.238 10.1869 29.7134 11.5799 28.6991C12.9852 27.6724 14.5638 27.1155 16.2261 27.0315C15.9599 26.0794 15.6318 25.2766 15.4244 24.8131C14.9415 23.7396 14.1274 22.5667 13.1523 21.6488C13.0471 22.912 12.6726 24.1752 12.0659 25.0837C10.871 26.8728 8.96118 27.8311 6.96775 27.6662C5.20646 27.5137 3.69588 26.4901 3.03037 24.9966C2.6063 24.0477 2.17607 22.0844 4.02402 19.6046C5.13836 18.1143 6.9801 17.2898 9.03235 17.2711C7.39489 15.2456 5.03621 14.9967 0.151672 15.283L0 12.6476C5.85959 12.3085 9.94551 12.5076 12.5302 18.0303C14.9198 19.1753 16.8575 21.5928 17.8171 23.7334C18.3743 24.978 18.7736 26.182 19.0119 27.3239C19.727 27.5044 20.4482 27.7657 21.1694 28.1111C26.3511 30.5784 30.6692 36.9069 30.9973 42.5198L28.3755 42.6723V42.6754ZM16.6563 29.6637C15.5141 29.6637 14.2977 29.9779 13.1183 30.8398C12.2794 31.4496 12.2237 32.2088 12.264 32.607C12.329 33.2417 12.7128 33.8173 13.2173 34.0413C13.8612 34.3276 14.5453 33.9822 15.0065 33.64C16.3189 32.6692 16.7028 31.1696 16.6594 29.6637H16.6563ZM9.07879 19.9158C7.97064 19.9158 6.82532 20.2487 6.11957 21.1945C5.34882 22.2306 5.10119 23.1983 5.42311 23.9232C5.6986 24.5424 6.37651 24.9717 7.18751 25.0433C8.23685 25.1335 9.21808 24.6139 9.88359 23.6183C10.4439 22.7844 10.6915 21.1821 10.4872 20.0931C10.0539 19.9873 9.57096 19.9189 9.07879 19.9189V19.9158Z" fill="#AA2677"/>
<path d="M31.2326 38.5217L28.6572 38.0053C28.8089 37.243 28.9977 36.434 29.1896 35.5971C29.7406 33.2387 30.3597 30.5784 30.1987 28.4161C29.0441 28.7459 27.8122 28.861 26.7597 28.7054C24.3577 28.3476 21.8257 26.7733 21.9309 24.1597C21.9711 23.1392 22.4416 22.1933 23.2619 21.4964C24.2462 20.6594 25.6609 20.2425 26.9547 20.4074C29.2794 20.6937 30.9354 22.4454 31.8888 24.5549C32.9536 23.5966 33.5882 22.296 34.2908 20.395C34.6715 19.3651 34.9316 18.2108 34.9997 17.0751C34.8882 17.1498 34.7768 17.2214 34.6623 17.2929C32.7184 18.4846 29.7963 18.2077 28.0443 17.3396C25.9271 16.288 24.9644 13.6215 25.893 11.3938C26.3852 10.2333 27.7626 8.33222 31.6226 8.69936C33.0619 8.82693 34.4332 9.4772 35.4826 10.532C35.755 10.8058 35.9995 11.0982 36.2131 11.4031C36.4019 10.8898 36.5226 10.3702 36.5567 9.87235C36.86 5.3671 34.3528 3.33849 32.1953 2.43308L33.2074 0C35.6218 1.0143 39.6056 3.66829 39.1754 10.0497C39.0732 11.596 38.448 13.2108 37.4853 14.5923C37.8846 16.8885 37.4667 19.3838 36.7517 21.3128C35.95 23.4783 34.9749 25.7029 32.7029 27.2493C32.7369 27.4453 32.7617 27.6413 32.7865 27.8373C33.0805 30.5007 32.3748 33.528 31.7526 36.2007C31.5669 37.0065 31.3842 37.7875 31.2357 38.5249L31.2326 38.5217ZM26.3852 23.0116C25.8744 23.0116 25.3173 23.2014 24.9551 23.5094C24.5682 23.8392 24.5558 24.1566 24.5527 24.2624C24.5125 25.2549 26.0416 25.9301 27.1374 26.0919C27.8462 26.1977 28.7439 26.0981 29.5703 25.8492C28.9977 24.474 28.0257 23.1983 26.6266 23.0241C26.5492 23.0147 26.4688 23.0085 26.3852 23.0085V23.0116ZM30.6847 11.2911C29.4218 11.2911 28.6232 11.6707 28.3074 12.4174C27.9205 13.3446 28.3384 14.5425 29.202 14.9719C30.4402 15.5848 32.3531 15.6159 33.3003 15.0341C33.7646 14.7541 34.2072 14.3869 34.6066 13.9669C34.3837 13.3695 34.0587 12.8375 33.6253 12.3988C33.0093 11.7796 32.2169 11.4 31.3873 11.3253C31.1397 11.3036 30.9075 11.2911 30.6878 11.2911H30.6847Z" fill="#AA2677"/>
</svg>
