<svg width="27" height="21" viewBox="0 0 27 21" fill="none" xmlns="http://www.w3.org/2000/svg">
<path d="M4.50024 0V20.9749M13.4994 0V20.9749M22.4986 0V20.9749" stroke="#212121" stroke-width="2.02481"/>
<path d="M4.5 2.91992C6.58907 2.92011 7.98623 4.3243 7.98633 5.7207C7.98633 7.11716 6.58914 8.52228 4.5 8.52246C2.41063 8.52246 1.0127 7.11725 1.0127 5.7207C1.01279 4.3242 2.4107 2.91992 4.5 2.91992Z" fill="white" stroke="#212121" stroke-width="2.02481"/>
<path d="M13.5004 12.45C15.5894 12.4501 16.9866 13.8543 16.9867 15.2507C16.9867 16.6472 15.5895 18.0523 13.5004 18.0525C11.411 18.0525 10.0131 16.6473 10.0131 15.2507C10.0132 13.8542 11.4111 12.45 13.5004 12.45Z" fill="white" stroke="#212121" stroke-width="2.02481"/>
<path d="M22.5009 5.77539C24.5899 5.77558 25.9871 7.17976 25.9872 8.57617C25.9872 9.97263 24.59 11.3777 22.5009 11.3779C20.4115 11.3779 19.0135 9.97272 19.0135 8.57617C19.0136 7.17967 20.4116 5.77539 22.5009 5.77539Z" fill="white" stroke="#212121" stroke-width="2.02481"/>
</svg>
