<svg width="49" height="65" viewBox="0 0 49 65" fill="none" xmlns="http://www.w3.org/2000/svg">
<g clip-path="url(#clip0_195_10524)">
<path d="M40.5084 27.4775L34.0829 32.7944L32.8083 33.8565L24.6368 40.6158L16.3721 33.8143L15.0859 32.7521L8.67788 27.4775H0.27356V64.5687H8.7128V38.757L13.5901 42.5289L15.115 43.7057L22.6114 49.4993H26.668L33.9956 43.8324L35.5147 42.6616L40.5666 38.757V64.5687H49V27.4775H40.5084Z" fill="#212121"/>
</g>
<path d="M24.6206 27.4985L24.3572 28.0857L24.0938 27.4985L14.1321 32.3845V64.9998H15.6477V33.3936L24.3572 29.1201L33.0685 33.3936V64.9998H34.5823V32.3845L24.6206 27.4985Z" fill="#AA2677"/>
<path d="M23.5588 28.3843C23.1229 26.2767 20.5035 25.5184 18.194 24.8496C17.3889 24.6162 16.6283 24.3946 15.992 24.1243C13.3801 23.018 10.4194 21.764 8.75727 18.7542C7.67391 16.7925 7.67577 14.2493 8.75912 12.2778C9.73674 10.5027 11.3877 9.51307 13.3411 9.62389C16.9232 9.81054 19.8079 13.0458 22.1564 19.5125C22.8056 21.3012 23.416 23.123 23.9688 24.9254C24.0652 25.2384 24.2136 25.5826 24.3658 25.9384C24.6774 26.6675 24.9983 27.4238 25.0521 28.1529L23.5569 28.3823L23.5588 28.3843ZM13.0684 11.2046C11.3544 11.2046 10.4565 12.375 10.0725 13.073C9.25257 14.5604 9.25072 16.4794 10.0688 17.959C11.4712 20.4983 14.059 21.5929 16.5615 22.6545C17.1162 22.8897 17.8359 23.0978 18.5984 23.3194C19.8042 23.6674 21.1472 24.0582 22.3011 24.6804C21.8169 23.1444 21.2938 21.6007 20.7428 20.0783C18.6318 14.2629 16.1868 11.3621 13.2669 11.2085L13.0703 11.2026L13.0684 11.2046Z" fill="#AA2677"/>
<path d="M25.442 28.3837L23.9468 28.1543C24.0006 27.4233 24.3234 26.6669 24.635 25.9359C24.7853 25.582 24.9337 25.2398 25.0301 24.9268C25.5904 23.107 26.2007 21.2852 26.8425 19.5139C29.191 13.0472 32.0757 9.81195 35.6578 9.6253C37.6019 9.52031 39.264 10.5041 40.2416 12.2831C41.325 14.2546 41.325 16.7939 40.2416 18.7557C38.5758 21.7693 35.617 23.0214 33.0069 24.1258C32.3706 24.396 31.61 24.6157 30.8049 24.849C28.4954 25.5198 25.876 26.2781 25.4382 28.3857L25.442 28.3837ZM35.9305 11.2041L35.7338 11.2099C32.8158 11.3615 30.3709 14.2644 28.2598 20.0797C27.7126 21.5865 27.1894 23.1322 26.7015 24.6799C27.8554 24.0577 29.1985 23.6669 30.4042 23.3189C31.1667 23.0972 31.8864 22.8892 32.4411 22.6539C34.9417 21.5943 37.5277 20.4997 38.932 17.9585C39.75 16.4808 39.75 14.5618 38.9301 13.0745C38.548 12.3745 37.6464 11.2041 35.9305 11.2041Z" fill="#AA2677"/>
<defs>
<clipPath id="clip0_195_10524">
<rect width="49" height="64.5686" fill="white"/>
</clipPath>
</defs>
</svg>
